<svg id="Layer_1" data-name="Layer 1" xmlns="http://www.w3.org/2000/svg" viewBox="0 0 500 500"><defs><style>.cls-1,.cls-10,.cls-2,.cls-4,.cls-8{fill:#e29ea4;}.cls-10,.cls-11,.cls-12,.cls-19,.cls-2,.cls-20,.cls-21,.cls-22,.cls-25,.cls-26,.cls-3,.cls-4{stroke:#000;}.cls-10,.cls-11,.cls-12,.cls-13,.cls-14,.cls-17,.cls-18,.cls-19,.cls-2,.cls-20,.cls-21,.cls-22,.cls-23,.cls-24,.cls-25,.cls-26,.cls-3,.cls-4,.cls-5,.cls-8,.cls-9{stroke-miterlimit:10;}.cls-2{stroke-width:5px;}.cls-25,.cls-3{fill:none;}.cls-3,.cls-4{stroke-width:5.2px;}.cls-27,.cls-5{fill:#d9e021;}.cls-24,.cls-5{stroke:#d9e021;}.cls-5{stroke-width:1.3px;}.cls-13,.cls-18,.cls-6{fill:#e6e6e6;}.cls-7{fill:#b3b3b3;}.cls-8{stroke:#e29ea4;stroke-width:1.5px;}.cls-19,.cls-23,.cls-24,.cls-28,.cls-9{fill:#fff;}.cls-23,.cls-9{stroke:#fff;}.cls-9{stroke-width:2.66px;}.cls-10,.cls-11,.cls-12{stroke-width:6.88px;}.cls-11{fill:#ba9b95;}.cls-12{fill:#666;}.cls-13{stroke:#e6e6e6;stroke-width:1.72px;}.cls-14,.cls-17{fill:#f2f2f2;}.cls-14{stroke:#f2f2f2;stroke-width:2.89px;}.cls-15,.cls-21{fill:#e27380;}.cls-16{fill:#d4465a;}.cls-17,.cls-18{stroke:#e27380;}.cls-17,.cls-18,.cls-19{stroke-width:5.98px;}.cls-20{stroke-width:9.95px;}.cls-21{stroke-width:3.05px;}.cls-22{stroke-width:9.47px;}.cls-23{stroke-width:2px;}.cls-24{stroke-width:3.36px;}.cls-25,.cls-26{stroke-width:4px;}</style></defs><title>CAT  SVG]</title><rect class="cls-1" x="343.19" y="296.21" width="23.3" height="23.46"/><rect class="cls-1" x="135.9" y="251.61" width="24.4" height="67.19"/><rect class="cls-1" x="358.33" y="297.9" width="6.23" height="6.23"/><path class="cls-2" d="M370.22,302.35v4.84h-3.79l.06,5.22v7.26h4.84l.08,12.74h4.13l-.07,11.17,4.34,0-.2,11,14,.18-.21,17.36H363.6v-7.68l.16-6.76-4.84-.08-.06-17.09-5.31.09V327.39h-5.77l0-7.27"/><rect class="cls-1" x="237.2" y="243.34" width="38.77" height="14.48"/><polyline class="cls-1" points="138.22 259.14 138.22 226.27 149.99 226.27 149.99 259.14"/><rect class="cls-1" x="325.22" y="270.47" width="35.92" height="45.29"/><rect class="cls-1" x="144.16" y="237.5" width="106.28" height="34.69"/><polyline class="cls-3" points="189.71 325.22 196.03 325.28 195.99 330.41 202.96 330.48 202.92 335.14 248.02 334.84 275.16 335.08 275.07 330.04 284.69 330.04"/><rect class="cls-1" x="157.04" y="248.51" width="175.17" height="84.52"/><rect class="cls-1" x="169.92" y="307.37" width="22.24" height="22.86"/><polyline class="cls-4" points="307.89 251.03 297.07 250.82 296.75 244.73 278.63 245.11 278.64 236.88 149.92 235.66"/><rect class="cls-1" x="351.59" y="270.47" width="25.93" height="16.26"/><polyline class="cls-4" points="379.06 270.47 378.87 290.77 370.22 290.77 370.22 304.32"/><rect class="cls-1" x="360.87" y="282.46" width="6.86" height="23.35"/><rect class="cls-1" x="188.36" y="304.05" width="10.46" height="16.18"/><rect class="cls-1" x="284.43" y="305.8" width="20.26" height="16.89"/><rect class="cls-5" x="366.7" y="175.66" width="17.29" height="5.86"/><rect class="cls-6" x="366.18" y="356.66" width="25.76" height="13.71" transform="translate(758.12 727.03) rotate(180)"/><rect class="cls-7" x="389.28" y="364.54" width="2.66" height="5.76" transform="translate(781.22 734.85) rotate(180)"/><rect class="cls-7" x="383.42" y="364.55" width="2.47" height="5.76"/><rect class="cls-8" x="361.22" y="176.71" width="41.4" height="5.59"/><rect class="cls-1" x="367.91" y="159" width="8.16" height="10.57"/><rect class="cls-1" x="297.07" y="291.39" width="6.79" height="13.02"/><rect class="cls-1" x="147.67" y="299.69" width="5.83" height="7.68"/><rect class="cls-6" x="201.82" y="312.41" width="86.61" height="11.58"/><rect class="cls-6" x="192.16" y="320.23" width="81.6" height="12.35"/><rect class="cls-6" x="183.75" y="322.69" width="120.94" height="9.4"/><rect class="cls-9" x="392.1" y="220.28" width="4.55" height="4.55"/><polygon class="cls-10" points="247.8 173.77 247.8 136.53 257.75 136.53 257.75 122.44 266.87 122.44 266.87 114.15 279.3 114.15 279.3 122.44 290.91 122.44 290.91 137.36 300.03 137.36 300.03 147.31 351.43 148.14 351.43 135.71 362.2 135.71 362.2 119.13 371.37 119.02 371.37 110.7 384.44 110.7 384.44 117.83 396.33 117.83 396.33 130.9 406.38 130.9 406.19 175.67 414.28 175.7 414.28 186.41 414.28 235.59 407.62 235.59 407.89 244.4 400.43 244.4 400.66 250.93 394.13 250.93 394.36 259.33 385.96 259.33 385.96 268.42 378.5 268.42 373.65 268.42 373.65 273.5 298.31 274.16 298 266.81 283.39 266.6 283.42 257.59 272.53 257.59 272.5 250.21 262.51 250.21 262.52 241.6 252.54 241.51 252.2 232.12 241.22 231.83 241.44 174.04 247.8 173.77"/><polygon class="cls-11" points="323.73 214.03 345.74 214.03 345.74 220.76 342.83 220.76 342.83 224.21 338.64 224.21 338.64 228.03 333.73 228.03 333.37 224.58 328.82 224.58 328.64 221.03 323.73 221.03 323.73 214.03"/><polyline class="cls-10" points="307.22 237.5 307.22 247.88 311.37 247.88 311.37 251.78 332.13 251.78 332.13 246.85 336.81 247.1 336.81 230.5"/><polyline class="cls-12" points="336.81 246.98 341.76 246.36 341.76 251.56 360.98 251.56 360.98 246.36 364.7 246.36 364.7 238.46"/><rect class="cls-13" x="262.51" y="145.52" width="22.86" height="7.75"/><rect class="cls-13" x="269.12" y="134.18" width="9.83" height="16.25"/><rect class="cls-14" x="369.1" y="131.1" width="18.08" height="25.01" transform="translate(234.54 521.74) rotate(-90)"/><rect class="cls-6" x="345.22" y="241.66" width="13.11" height="6.7"/><rect class="cls-6" x="314.89" y="244.31" width="13.47" height="4.06"/><rect class="cls-13" x="341.18" y="241.14" width="19.35" height="4.12"/><rect class="cls-6" x="310.76" y="240.99" width="22.85" height="4.61"/><rect class="cls-15" x="243.88" y="177.36" width="6.56" height="51.3"/><rect class="cls-16" x="255.47" y="228.66" width="10.19" height="9.57"/><rect class="cls-15" x="265.66" y="237.97" width="10.95" height="9.09"/><rect class="cls-15" x="286.83" y="254.29" width="11.02" height="9.27"/><rect class="cls-16" x="275.12" y="246.34" width="11.71" height="7.95"/><rect class="cls-16" x="397.46" y="232.2" width="6.86" height="8.79"/><rect class="cls-15" x="391.94" y="240.99" width="5.51" height="8.21"/><rect class="cls-16" x="382.55" y="247.31" width="9.39" height="8.57"/><rect class="cls-15" x="370.22" y="259.88" width="12.45" height="5.31"/><rect class="cls-15" x="406.82" y="178.93" width="4.51" height="53.27"/><rect class="cls-15" x="327.49" y="217.16" width="14.36" height="5.67"/><rect class="cls-16" x="354.85" y="139.21" width="11.4" height="14.97"/><rect class="cls-16" x="374.81" y="114.13" width="6.47" height="20.41"/><rect class="cls-16" x="366.26" y="121.14" width="27.13" height="13.4"/><rect class="cls-16" x="385.44" y="133.95" width="17.64" height="10.86"/><rect class="cls-16" x="391.87" y="143.49" width="11.21" height="10.68"/><rect class="cls-17" x="275.12" y="214.03" width="22.73" height="14"/><rect class="cls-18" x="370.22" y="214.03" width="24.1" height="14.63"/><rect class="cls-19" x="269.12" y="167.74" width="45.77" height="42.7"/><rect class="cls-20" x="284.52" y="176.32" width="27.71" height="23.27"/><rect class="cls-19" x="355.05" y="169.86" width="45.77" height="42.7"/><rect class="cls-21" x="269.12" y="166.36" width="45.77" height="7.71"/><rect class="cls-21" x="355.24" y="168.6" width="45.77" height="7.71"/><rect class="cls-22" x="369.98" y="180.47" width="27.41" height="21.28"/><rect class="cls-23" x="386.18" y="189.75" width="2.72" height="2.72"/><rect class="cls-24" x="390.34" y="183.01" width="5.76" height="5.76"/><rect class="cls-23" x="300.76" y="187.55" width="2.72" height="2.72"/><rect class="cls-24" x="304.92" y="180.81" width="5.76" height="5.76"/><rect class="cls-16" x="364.1" y="121.14" width="9.08" height="23.67"/><rect x="193.31" y="332.09" width="116.5" height="4.81"/><rect class="cls-16" x="270.25" y="117.61" width="5.72" height="14.13"/><rect class="cls-16" x="261.17" y="125.86" width="26.29" height="7.55"/><rect class="cls-16" x="251.24" y="139.92" width="10.34" height="14.26"/><rect class="cls-16" x="261.24" y="132.54" width="7.06" height="12.05"/><rect class="cls-16" x="279.92" y="132.92" width="7.49" height="11.73"/><rect class="cls-16" x="286.31" y="140.6" width="10.39" height="13.57"/><rect class="cls-1" x="138.61" y="229.82" width="9.06" height="29.63"/><polyline class="cls-4" points="136.71 231.85 136.35 249.72 131.94 249.72 131.88 255.72 128.84 255.83 128.84 301.06 131.91 301.08 131.86 307.43 137.42 307.62 137.42 316.08"/><rect class="cls-1" x="358.33" y="283.9" width="3.54" height="15.8"/><polyline class="cls-25" points="307.25 334.5 307.25 332.09 314.66 332.09"/><rect class="cls-1" x="141.9" y="264.56" width="23.96" height="30.78"/><line class="cls-26" x1="175.44" y1="332.09" x2="193.31" y2="332.09"/><polyline class="cls-2" points="351.92 302.35 351.92 311.5 346.51 311.45 346.51 319.59 339.38 319.67 339.63 331.9 332.75 332.09 332.69 345.9 324.22 345.9 324.45 356.94 312.6 356.66 312.48 372.23 290.55 372.23 290.55 345.68 304.69 345.77 304.69 332.09 314.39 332.3 314.39 319.72 321.57 319.73 321.41 308.89 327.75 308.89 327.49 299.69"/><rect class="cls-6" x="290.56" y="350.35" width="22.07" height="17.07" transform="translate(-57.28 660.48) rotate(-90)"/><polyline class="cls-1" points="374.75 288.17 374.75 279.9 366.48 279.9 366.48 288.17"/><rect class="cls-1" x="351.69" y="318.59" width="5.02" height="1.49"/><polyline class="cls-2" points="177.85 319.69 177.96 331.82 185.37 331.82 185.28 342.98 191.17 342.95 190.89 354 206.57 354.15 206.56 371.54 176.88 371.54 177 363.95 176.88 356.06 167.28 356.06 166.96 339.88 155.54 340.02 155.54 331.3 155.54 326.79"/><rect class="cls-6" x="177.45" y="356.06" width="25.76" height="13.71" transform="translate(380.65 725.84) rotate(180)"/><rect class="cls-7" x="200.81" y="363.95" width="2.4" height="5.76"/><rect class="cls-7" x="198.24" y="364.02" width="2.22" height="5.76"/><rect class="cls-1" x="134.54" y="301.01" width="7.36" height="15.68"/><polyline class="cls-2" points="130 311.88 130.06 319.36 121.23 319.54 121.23 330.13 114.31 330.37 114.55 342.94 98.25 343.34 98.25 370.06 121.23 370.06 121.34 355.06 132.9 354.85 132.9 342.31 142.35 342.19 142.12 331.96 152.77 331.73 152.46 319.5 152.26 315.14 159.93 315.14 159.51 305.35 164.84 305.35 164.84 299.93"/><rect class="cls-6" x="98.24" y="346.89" width="22.79" height="18.82" transform="translate(-246.67 465.95) rotate(-90)"/><polyline class="cls-4" points="136.71 234.07 136.71 221.96 140.46 221.96 140.41 209.04 140.41 209.04 140.41 209.04 140.41 209.04 140.35 192.87 140.39 182.98 140.37 180.28 136.27 180.3 136.51 157.82 136.51 157.82 136.68 143.7 140.23 143.63 140.23 138.06 153.98 138.06 153.98 150.59 148.67 150.73 148.68 164.01 148.68 164.01 148.6 171.07 152.9 171.06 152.86 180.87 152.86 180.87 152.72 219.03 152.72 219.03 152.72 219.03 152.81 230.5 146.1 230.58"/><rect class="cls-27" x="139.21" y="145.96" width="6.83" height="9.75" transform="translate(285.24 301.68) rotate(-180)"/><rect class="cls-28" x="142.82" y="140.64" width="8.6" height="9.75" transform="translate(294.23 291.02) rotate(-180)"/><rect class="cls-16" x="139" y="158.96" width="7.04" height="10.65" transform="translate(285.03 328.58) rotate(-180)"/><rect class="cls-16" x="142.96" y="183.4" width="7.29" height="7.13" transform="translate(293.21 373.92) rotate(-180)"/></svg>