<svg id="Layer_1" data-name="Layer 1" xmlns="http://www.w3.org/2000/svg" viewBox="0 0 500 500"><defs><style>.cls-1,.cls-2,.cls-7,.cls-9{fill:#e29ea4;}.cls-10,.cls-11,.cls-16,.cls-19,.cls-2,.cls-20,.cls-21,.cls-22,.cls-27,.cls-29,.cls-3,.cls-9{stroke:#000;}.cls-10,.cls-11,.cls-12,.cls-13,.cls-16,.cls-17,.cls-18,.cls-19,.cls-2,.cls-20,.cls-21,.cls-22,.cls-23,.cls-24,.cls-27,.cls-29,.cls-3,.cls-4,.cls-7,.cls-8,.cls-9{stroke-miterlimit:10;}.cls-2,.cls-3{stroke-width:5.2px;}.cls-27,.cls-3{fill:none;}.cls-25,.cls-4{fill:#d9e021;}.cls-24,.cls-4{stroke:#d9e021;}.cls-4{stroke-width:1.3px;}.cls-12,.cls-18,.cls-5{fill:#e6e6e6;}.cls-6{fill:#b3b3b3;}.cls-7{stroke:#e29ea4;stroke-width:1.5px;}.cls-19,.cls-23,.cls-24,.cls-26,.cls-8{fill:#fff;}.cls-23,.cls-8{stroke:#fff;}.cls-8{stroke-width:2.66px;}.cls-10,.cls-11,.cls-9{stroke-width:6.88px;}.cls-10{fill:#ba9b95;}.cls-11{fill:#666;}.cls-12{stroke:#e6e6e6;stroke-width:1.72px;}.cls-13,.cls-17,.cls-28{fill:#f2f2f2;}.cls-13{stroke:#f2f2f2;stroke-width:2.89px;}.cls-14,.cls-21{fill:#e27380;}.cls-15,.cls-16{fill:#d4465a;}.cls-16{stroke-width:5.16px;}.cls-17,.cls-18{stroke:#e27380;}.cls-17,.cls-18,.cls-19{stroke-width:5.98px;}.cls-20{stroke-width:9.95px;}.cls-21{stroke-width:3.05px;}.cls-22{stroke-width:9.47px;}.cls-23{stroke-width:2px;}.cls-24{stroke-width:3.36px;}.cls-27,.cls-29{stroke-width:4px;}</style></defs><title>CAT  SVG]</title><rect class="cls-1" x="133.43" y="333.43" width="19.69" height="31.64"/><rect class="cls-1" x="305.78" y="328.73" width="19.91" height="19.91"/><rect class="cls-1" x="224.46" y="244.68" width="38.77" height="14.48"/><polyline class="cls-2" points="125.88 326.56 125.88 354.19 131.25 354.19 131.25 368.11 151.17 368.11"/><polyline class="cls-1" points="125.49 260.48 125.49 227.61 137.26 227.61 137.26 260.48"/><rect class="cls-1" x="312.49" y="276.26" width="35.92" height="40.84"/><rect class="cls-1" x="131.42" y="238.84" width="106.28" height="34.69"/><polyline class="cls-3" points="176.97 326.56 183.3 326.62 183.25 331.75 190.23 331.82 190.19 336.49 235.29 336.18 262.43 336.42 262.33 331.38 271.95 331.38"/><rect class="cls-1" x="141.39" y="249.86" width="179.75" height="84.52"/><rect class="cls-1" x="157.19" y="308.71" width="22.24" height="22.86"/><line class="cls-2" x1="117.6" y1="234.04" x2="126.5" y2="234.15"/><polyline class="cls-2" points="295.16 252.37 284.33 252.16 284.01 246.07 265.89 246.45 265.9 238.22 137.19 237"/><rect class="cls-1" x="349.13" y="283.8" width="6.86" height="23.35"/><rect class="cls-1" x="338.86" y="271.81" width="25.93" height="16.26"/><polyline class="cls-2" points="307.75 354.35 307.52 340.51 302.81 340.49 302.81 325.86 296.18 325.75 296.1 317.92"/><polyline class="cls-2" points="334.33 336.49 334.25 347.43 330.17 347.43 330.02 353.12 339.55 353.27 339.75 366.52 307.75 366.85 307.75 354.35"/><polyline class="cls-2" points="366.33 271.81 366.13 292.11 357.48 292.11 357.48 305.66 348.41 305.65 348.41 324.03 334.54 324.03"/><polyline class="cls-2" points="325.75 307.14 325.92 314.61 332.85 314.65 332.86 324.74 341.43 324.88 341.88 336.93 349.13 337.19 349.73 350.55 364.8 350.81 364.8 368.65 364.8 368.65 335.56 368.92 335.6 358.88 330.04 358.97 329.79 347.62 322.68 347.62 322.5 335.8 314.94 335.8 315.11 325.37 307.94 325.33 307.94 311.88 300.39 311.57 300.39 299.24"/><rect class="cls-1" x="175.63" y="305.39" width="10.46" height="16.18"/><rect class="cls-1" x="271.7" y="307.14" width="20.26" height="16.89"/><rect class="cls-4" x="353.97" y="177" width="17.29" height="5.86"/><rect class="cls-5" x="338.16" y="352.62" width="25.14" height="14.13"/><rect class="cls-6" x="360.89" y="361" width="2.4" height="5.76"/><rect class="cls-6" x="355.29" y="361" width="2.22" height="5.76"/><rect class="cls-7" x="348.49" y="178.05" width="41.4" height="5.59"/><rect class="cls-1" x="355.17" y="160.34" width="8.16" height="10.57"/><rect class="cls-1" x="284.33" y="292.73" width="6.79" height="13.02"/><rect class="cls-1" x="134.94" y="301.04" width="5.83" height="7.68"/><rect class="cls-5" x="189.09" y="313.75" width="86.61" height="11.58"/><rect class="cls-5" x="179.43" y="321.57" width="81.6" height="12.35"/><rect class="cls-5" x="171.01" y="324.03" width="120.94" height="9.4"/><rect class="cls-8" x="379.36" y="221.62" width="4.55" height="4.55"/><polygon class="cls-9" points="235.07 176.11 235.07 138.88 245.02 138.88 245.02 124.78 254.13 124.78 254.13 116.49 266.57 116.49 266.57 124.78 278.18 124.78 278.18 139.71 287.3 139.71 287.3 149.65 338.69 150.48 338.69 138.05 349.47 138.05 349.47 121.47 358.64 121.36 358.64 113.04 371.71 113.04 371.71 120.17 383.6 120.17 383.6 133.24 393.65 133.24 393.46 178.01 401.54 178.04 401.54 188.75 401.54 237.93 394.88 237.93 395.16 246.74 387.69 246.74 387.93 253.27 381.4 253.27 381.63 261.67 373.23 261.67 373.23 270.76 365.77 270.76 360.92 270.76 360.92 275.84 285.58 276.5 285.26 269.15 270.66 268.94 270.69 259.93 259.79 259.93 259.77 252.56 249.78 252.56 249.79 243.94 239.8 243.85 239.47 234.46 228.49 234.17 228.7 176.38 235.07 176.11"/><polygon class="cls-10" points="311 216.37 333 216.37 333 223.1 330.09 223.1 330.09 226.55 325.91 226.55 325.91 230.37 321 230.37 320.64 226.92 316.09 226.92 315.91 223.37 311 223.37 311 216.37"/><polyline class="cls-9" points="294.48 239.84 294.48 250.22 298.64 250.22 298.64 254.12 319.4 254.12 319.4 249.19 324.07 249.45 324.07 232.84"/><polyline class="cls-11" points="324.07 249.32 329.03 248.7 329.03 253.9 348.25 253.9 348.25 248.7 351.97 248.7 351.97 240.8"/><rect class="cls-12" x="249.77" y="147.86" width="22.86" height="7.75"/><rect class="cls-12" x="256.39" y="136.52" width="9.83" height="16.25"/><rect class="cls-13" x="356.36" y="133.44" width="18.08" height="25.01" transform="translate(219.46 511.35) rotate(-90)"/><rect class="cls-5" x="332.48" y="244" width="13.11" height="6.7"/><rect class="cls-5" x="302.16" y="246.65" width="13.47" height="4.06"/><rect class="cls-12" x="328.45" y="243.48" width="19.35" height="4.12"/><rect class="cls-5" x="298.02" y="243.33" width="22.85" height="4.61"/><rect class="cls-14" x="231.15" y="179.7" width="6.56" height="51.3"/><rect class="cls-15" x="242.74" y="231" width="10.19" height="9.57"/><rect class="cls-14" x="252.92" y="240.31" width="10.95" height="9.09"/><rect class="cls-14" x="274.1" y="256.63" width="11.02" height="9.27"/><rect class="cls-15" x="262.39" y="248.68" width="11.71" height="7.95"/><rect class="cls-15" x="384.72" y="234.54" width="6.86" height="8.79"/><rect class="cls-14" x="379.21" y="243.33" width="5.51" height="8.21"/><rect class="cls-15" x="369.82" y="249.65" width="9.39" height="8.57"/><rect class="cls-14" x="357.48" y="262.22" width="12.45" height="5.31"/><rect class="cls-14" x="394.09" y="181.27" width="4.51" height="53.27"/><rect class="cls-14" x="314.76" y="219.5" width="14.36" height="5.67"/><rect class="cls-15" x="342.12" y="141.55" width="11.4" height="14.97"/><rect class="cls-15" x="362.07" y="116.47" width="6.47" height="20.41"/><rect class="cls-15" x="353.52" y="123.48" width="27.13" height="13.4"/><rect class="cls-15" x="372.71" y="136.29" width="17.64" height="10.86"/><rect class="cls-15" x="379.14" y="145.83" width="11.21" height="10.68"/><rect class="cls-16" x="317.59" y="254.12" width="12.56" height="10.08"/><rect class="cls-17" x="262.39" y="216.37" width="22.73" height="14"/><rect class="cls-18" x="357.48" y="216.37" width="24.1" height="14.63"/><rect class="cls-19" x="256.39" y="170.08" width="45.77" height="42.7"/><rect class="cls-20" x="271.79" y="178.66" width="27.71" height="23.27"/><rect class="cls-19" x="342.32" y="172.2" width="45.77" height="42.7"/><rect class="cls-21" x="256.39" y="168.7" width="45.77" height="7.71"/><rect class="cls-21" x="342.51" y="170.94" width="45.77" height="7.71"/><rect class="cls-22" x="357.25" y="182.81" width="27.41" height="21.28"/><rect class="cls-23" x="373.45" y="192.09" width="2.72" height="2.72"/><rect class="cls-24" x="377.61" y="185.35" width="5.76" height="5.76"/><rect class="cls-23" x="288.03" y="189.89" width="2.72" height="2.72"/><rect class="cls-24" x="292.19" y="183.15" width="5.76" height="5.76"/><rect class="cls-15" x="351.37" y="123.48" width="9.08" height="23.67"/><rect x="180.58" y="333.43" width="116.5" height="4.81"/><rect class="cls-15" x="257.51" y="122.95" width="5.72" height="14.13"/><rect class="cls-15" x="248.43" y="128.2" width="26.29" height="7.55"/><rect class="cls-15" x="238.51" y="142.26" width="10.34" height="14.26"/><rect class="cls-15" x="248.51" y="134.88" width="7.06" height="12.05"/><rect class="cls-15" x="267.19" y="138.26" width="7.49" height="11.73"/><rect class="cls-15" x="273.57" y="142.94" width="10.39" height="13.57"/><rect class="cls-1" x="125.88" y="231.16" width="9.06" height="29.63"/><rect class="cls-5" x="312.24" y="346.64" width="8.04" height="14.12"/><rect class="cls-5" x="312.57" y="349.7" width="14.05" height="15.19" transform="translate(676.88 37.71) rotate(90)"/><polyline class="cls-2" points="123.97 233.19 123.61 251.06 119.2 251.06 119.15 257.06 116.11 257.17 116.11 302.4 119.17 302.42 119.12 308.77 124.68 308.96 124.69 317.42 124.7 327.75 131.14 327.75 131.01 337.48 138.84 337.57 138.78 346.63 146.27 346.72 146.27 356.24 152.41 356.26 152.25 369.59 173.54 369.89 173.54 369.89 181.78 369.89 181.72 354.35 170.52 353.99 170.52 343.95 162.7 343.8 162.71 333.43 155.46 333.43 155.57 324.63 148.78 324.56 148.9 318.49"/><rect class="cls-5" x="154.69" y="355.54" width="25" height="12.06"/><rect class="cls-6" x="171.01" y="362.53" width="2.52" height="5.08"/><rect class="cls-6" x="176.97" y="362.53" width="2.73" height="5.08"/><rect class="cls-1" x="345.6" y="285.24" width="3.54" height="15.8"/><rect class="cls-1" x="335.45" y="308.69" width="5.13" height="12.8"/><polyline class="cls-2" points="135.27 239.61 135.27 227.5 131.52 227.5 131.57 214.57 131.57 214.57 131.57 214.57 131.57 214.57 131.63 198.4 131.59 188.52 131.61 185.81 135.71 185.84 135.47 163.35 135.47 163.35 135.31 149.23 131.75 149.17 131.75 143.59 118 143.59 118 156.13 123.31 156.26 123.31 169.54 123.31 169.54 123.38 176.61 119.09 176.59 119.12 186.4 119.12 186.4 119.26 224.57 119.26 224.57 119.26 224.57 119.17 236.04 125.88 236.12"/><rect class="cls-25" x="125.94" y="151.5" width="6.83" height="9.75"/><rect class="cls-26" x="120.56" y="146.17" width="8.6" height="9.75"/><rect class="cls-15" x="125.94" y="164.5" width="7.04" height="10.65"/><rect class="cls-15" x="121.73" y="188.93" width="7.29" height="7.13"/><rect class="cls-5" x="325.25" y="360.76" width="7.72" height="3.56"/><rect class="cls-5" x="325.25" y="350.27" width="2.26" height="13.6"/><rect x="307" y="347.1" width="5.24" height="18.38"/><polyline class="cls-27" points="294.51 335.84 294.51 333.43 301.93 333.43"/><rect class="cls-1" x="129.16" y="265.9" width="23.96" height="30.78"/><rect class="cls-28" x="133.81" y="354.26" width="9.95" height="11.32"/><rect class="cls-28" x="140" y="358.83" width="9.95" height="6.75"/><line class="cls-29" x1="162.71" y1="333.43" x2="180.58" y2="333.43"/></svg>