<svg id="Layer_1" data-name="Layer 1" xmlns="http://www.w3.org/2000/svg" viewBox="0 0 500 500"><defs><style>.cls-1,.cls-10,.cls-2,.cls-4,.cls-8{fill:#e29ea4;}.cls-10,.cls-11,.cls-12,.cls-19,.cls-2,.cls-20,.cls-21,.cls-22,.cls-27,.cls-28,.cls-3,.cls-4{stroke:#000;}.cls-10,.cls-11,.cls-12,.cls-13,.cls-14,.cls-17,.cls-18,.cls-19,.cls-2,.cls-20,.cls-21,.cls-22,.cls-23,.cls-24,.cls-27,.cls-28,.cls-3,.cls-4,.cls-5,.cls-8,.cls-9{stroke-miterlimit:10;}.cls-2{stroke-width:5px;}.cls-27,.cls-3{fill:none;}.cls-3,.cls-4{stroke-width:5.2px;}.cls-25,.cls-5{fill:#d9e021;}.cls-24,.cls-5{stroke:#d9e021;}.cls-5{stroke-width:1.3px;}.cls-13,.cls-18,.cls-6{fill:#e6e6e6;}.cls-7{fill:#b3b3b3;}.cls-8{stroke:#e29ea4;stroke-width:1.5px;}.cls-19,.cls-23,.cls-24,.cls-26,.cls-9{fill:#fff;}.cls-23,.cls-9{stroke:#fff;}.cls-9{stroke-width:2.66px;}.cls-10,.cls-11,.cls-12{stroke-width:6.88px;}.cls-11{fill:#ba9b95;}.cls-12{fill:#666;}.cls-13{stroke:#e6e6e6;stroke-width:1.72px;}.cls-14,.cls-17{fill:#f2f2f2;}.cls-14{stroke:#f2f2f2;stroke-width:2.89px;}.cls-15,.cls-21{fill:#e27380;}.cls-16{fill:#d4465a;}.cls-17,.cls-18{stroke:#e27380;}.cls-17,.cls-18,.cls-19{stroke-width:5.98px;}.cls-20{stroke-width:9.95px;}.cls-21{stroke-width:3.05px;}.cls-22{stroke-width:9.47px;}.cls-23{stroke-width:2px;}.cls-24{stroke-width:3.36px;}.cls-27,.cls-28{stroke-width:4px;}</style></defs><title>CAT  SVG]</title><rect class="cls-1" x="323.75" y="271.97" width="35.92" height="45.29"/><rect class="cls-1" x="134.42" y="253.11" width="24.4" height="67.19"/><rect class="cls-1" x="356.86" y="299.4" width="6.23" height="6.23"/><rect class="cls-1" x="332.01" y="311.29" width="23.93" height="15.6"/><polyline class="cls-2" points="362.87 305.81 362.54 345.08 366.88 345.05 366.68 356.1 380.63 356.28 380.42 373.64 350.67 373.64 350.67 365.96 350.83 359.2 345.99 359.11 345.93 342.03 345.93 342.03 345.71 323.3 341.95 323.3"/><rect class="cls-1" x="235.72" y="244.84" width="38.77" height="14.48"/><polyline class="cls-1" points="136.75 260.64 136.75 227.77 148.52 227.77 148.52 260.64"/><rect class="cls-1" x="142.68" y="239" width="106.28" height="34.69"/><polyline class="cls-3" points="188.23 326.72 194.56 326.78 194.51 331.91 201.49 331.98 201.45 336.64 246.55 336.34 273.69 336.58 273.59 331.54 283.21 331.54"/><rect class="cls-1" x="155.57" y="250.01" width="175.17" height="84.52"/><rect class="cls-1" x="168.45" y="308.87" width="22.24" height="22.86"/><polyline class="cls-4" points="306.42 252.53 295.6 252.32 295.27 246.23 277.15 246.61 277.17 238.38 148.45 237.16"/><rect class="cls-1" x="360.39" y="283.96" width="6.86" height="23.35"/><rect class="cls-1" x="350.12" y="271.97" width="25.93" height="16.26"/><polyline class="cls-4" points="377.59 271.97 377.39 292.27 368.74 292.27 368.74 305.82 358.87 305.81 358.87 305.81"/><rect class="cls-1" x="186.89" y="305.55" width="10.46" height="16.18"/><rect class="cls-1" x="282.96" y="307.3" width="20.26" height="16.89"/><rect class="cls-5" x="365.23" y="177.16" width="17.29" height="5.86"/><rect class="cls-6" x="348.72" y="358.16" width="25.76" height="13.71" transform="translate(723.19 730.03) rotate(180)"/><rect class="cls-7" x="372.08" y="366.04" width="2.4" height="5.76"/><rect class="cls-7" x="367.55" y="366.05" width="2.22" height="5.76"/><rect class="cls-8" x="359.75" y="178.21" width="41.4" height="5.59"/><rect class="cls-1" x="366.43" y="160.5" width="8.16" height="10.57"/><rect class="cls-1" x="295.59" y="292.89" width="6.79" height="13.02"/><rect class="cls-1" x="146.2" y="301.19" width="5.83" height="7.68"/><rect class="cls-6" x="200.35" y="313.91" width="86.61" height="11.58"/><rect class="cls-6" x="190.69" y="321.73" width="81.6" height="12.35"/><rect class="cls-6" x="182.27" y="324.19" width="120.94" height="9.4"/><rect class="cls-9" x="390.62" y="221.78" width="4.55" height="4.55"/><polygon class="cls-10" points="246.33 172.27 246.33 135.03 256.28 135.03 256.28 120.94 265.39 120.94 265.39 112.65 277.83 112.65 277.83 120.94 289.44 120.94 289.44 135.86 298.56 135.86 298.56 145.81 349.95 146.64 349.95 134.21 360.73 134.21 360.73 117.63 369.9 117.52 369.9 109.2 382.97 109.2 382.97 116.33 394.86 116.33 394.86 129.4 404.91 129.4 404.72 174.17 412.81 174.2 412.81 184.91 412.81 234.09 406.14 234.09 406.42 242.9 398.95 242.9 399.19 249.43 392.66 249.43 392.89 257.83 384.49 257.83 384.49 266.92 377.03 266.92 372.18 266.92 372.18 272 296.84 272.66 296.52 265.31 281.92 265.1 281.95 256.09 271.05 256.09 271.03 248.71 261.04 248.71 261.05 240.1 251.06 240.01 250.73 230.62 239.75 230.33 239.96 172.54 246.33 172.27"/><polygon class="cls-11" points="322.26 212.53 344.26 212.53 344.26 219.26 341.35 219.26 341.35 222.71 337.17 222.71 337.17 226.53 332.26 226.53 331.9 223.08 327.35 223.08 327.17 219.53 322.26 219.53 322.26 212.53"/><polyline class="cls-10" points="305.74 236 305.74 246.38 309.9 246.38 309.9 250.28 330.66 250.28 330.66 245.35 335.33 245.6 335.33 229"/><polyline class="cls-12" points="335.33 245.48 340.29 244.86 340.29 250.06 359.51 250.06 359.51 244.86 363.23 244.86 363.23 236.96"/><rect class="cls-13" x="261.03" y="144.02" width="22.86" height="7.75"/><rect class="cls-13" x="267.65" y="132.68" width="9.83" height="16.25"/><rect class="cls-14" x="367.62" y="129.6" width="18.08" height="25.01" transform="translate(234.56 518.77) rotate(-90)"/><rect class="cls-6" x="343.74" y="240.16" width="13.11" height="6.7"/><rect class="cls-6" x="313.42" y="242.81" width="13.47" height="4.06"/><rect class="cls-13" x="339.71" y="239.64" width="19.35" height="4.12"/><rect class="cls-6" x="309.28" y="239.49" width="22.85" height="4.61"/><rect class="cls-15" x="242.41" y="175.86" width="6.56" height="51.3"/><rect class="cls-16" x="254" y="227.16" width="10.19" height="9.57"/><rect class="cls-15" x="264.18" y="236.47" width="10.95" height="9.09"/><rect class="cls-15" x="285.36" y="252.79" width="11.02" height="9.27"/><rect class="cls-16" x="273.65" y="244.84" width="11.71" height="7.95"/><rect class="cls-16" x="395.98" y="230.7" width="6.86" height="8.79"/><rect class="cls-15" x="390.47" y="239.49" width="5.51" height="8.21"/><rect class="cls-16" x="381.08" y="245.81" width="9.39" height="8.57"/><rect class="cls-15" x="368.74" y="258.38" width="12.45" height="5.31"/><rect class="cls-15" x="405.35" y="177.43" width="4.51" height="53.27"/><rect class="cls-15" x="326.02" y="215.66" width="14.36" height="5.67"/><rect class="cls-16" x="353.38" y="137.71" width="11.4" height="14.97"/><rect class="cls-16" x="373.33" y="112.63" width="6.47" height="20.41"/><rect class="cls-16" x="364.78" y="119.64" width="27.13" height="13.4"/><rect class="cls-16" x="383.97" y="132.45" width="17.64" height="10.86"/><rect class="cls-16" x="390.4" y="141.99" width="11.21" height="10.68"/><rect class="cls-17" x="273.65" y="212.53" width="22.73" height="14"/><rect class="cls-18" x="368.74" y="212.53" width="24.1" height="14.63"/><rect class="cls-19" x="267.65" y="166.24" width="45.77" height="42.7"/><rect class="cls-20" x="283.05" y="174.82" width="27.71" height="23.27"/><rect class="cls-19" x="353.58" y="168.36" width="45.77" height="42.7"/><rect class="cls-21" x="267.65" y="164.86" width="45.77" height="7.71"/><rect class="cls-21" x="353.77" y="167.1" width="45.77" height="7.71"/><rect class="cls-22" x="368.51" y="178.97" width="27.41" height="21.28"/><rect class="cls-23" x="384.71" y="188.25" width="2.72" height="2.72"/><rect class="cls-24" x="388.87" y="181.51" width="5.76" height="5.76"/><rect class="cls-23" x="299.29" y="186.05" width="2.72" height="2.72"/><rect class="cls-24" x="303.45" y="179.31" width="5.76" height="5.76"/><rect class="cls-16" x="362.63" y="119.64" width="9.08" height="23.67"/><rect x="191.84" y="333.59" width="116.5" height="4.81"/><rect class="cls-16" x="268.77" y="123.11" width="5.72" height="14.13"/><rect class="cls-16" x="259.69" y="124.36" width="26.29" height="7.55"/><rect class="cls-16" x="249.77" y="138.42" width="10.34" height="14.26"/><rect class="cls-16" x="259.77" y="131.04" width="7.06" height="12.05"/><rect class="cls-16" x="278.45" y="134.42" width="7.49" height="11.73"/><rect class="cls-16" x="284.83" y="139.1" width="10.39" height="13.57"/><rect class="cls-1" x="137.14" y="231.32" width="9.06" height="29.63"/><polyline class="cls-4" points="135.23 233.35 134.88 251.22 130.46 251.22 130.41 257.22 127.37 257.33 127.37 302.56 130.43 302.58 130.38 308.93 135.94 309.12 135.95 317.58"/><rect class="cls-1" x="356.86" y="285.4" width="3.54" height="15.8"/><polyline class="cls-4" points="146.53 239.77 146.53 227.66 151.71 227.66 151.68 216.59 151.71 213.59 151.71 213.59 151.71 213.59 151.71 199.32 151.71 190.54 151.69 186.02 146.97 186 146.73 163.51 146.73 163.51 146.56 149.39 146.58 143.75 146.46 135.04 134.48 135.04 134.54 145.6 134.57 156.42 134.56 169.7 134.56 169.7 134.42 194.16 134.42 194.16 134.42 194.16 134.42 194.16 140.23 193.97 140.48 209.14 140.48 217.89 135.07 217.89 134.88 251.22"/><rect class="cls-25" x="137.31" y="146.78" width="6.83" height="9.75"/><rect class="cls-26" x="137.2" y="137.73" width="6.83" height="9.75"/><rect class="cls-16" x="137.2" y="162.96" width="7.04" height="10.65"/><rect class="cls-16" x="137.08" y="184.57" width="7.29" height="7.13"/><polyline class="cls-27" points="305.77 336 305.77 333.59 313.19 333.59"/><rect class="cls-1" x="140.42" y="266.06" width="23.96" height="30.78"/><line class="cls-28" x1="173.97" y1="333.59" x2="191.84" y2="333.59"/><polyline class="cls-2" points="350.06 300.19 350.22 309.94 343.28 310.16 343.28 321.17 337.9 321.17 338.16 333.4 331.28 333.59 331.22 347.4 324.5 347.4 324.33 358.47 313.01 358.73 312.92 373.73 294.54 373.73 294.54 347.01 307.57 346.61 307.38 334.04 312.92 333.8 312.92 321.22 320.1 321.23 319.94 313.56 319.94 307.3 326.89 307.3 326.89 301.19"/><polyline class="cls-2" points="138.01 310.38 138.18 318.06 131 318.04 131 330.63 125.46 330.87 125.65 343.44 112.61 343.84 112.61 369.56 131 369.56 131.09 355.56 142.41 355.3 142.58 344.23 149.29 344.23 149.36 330.42 156.23 330.23 155.98 318"/><rect class="cls-6" x="292.97" y="353.16" width="22.79" height="14.5" transform="translate(-56.04 664.77) rotate(-90)"/><rect class="cls-6" x="110.81" y="349.78" width="21.79" height="14.5" transform="translate(-235.32 478.74) rotate(-90)"/><rect class="cls-1" x="364.61" y="281.83" width="8.27" height="8.27"/><rect class="cls-1" x="350.22" y="320.09" width="5.02" height="1.49"/><polyline class="cls-2" points="174.01 317.58 174.08 330.32 178.22 330.32 178.15 341.48 182.49 341.45 182.29 352.5 196.24 352.68 196.03 370.04 166.28 370.04 166.28 362.36 166.44 355.6 161.6 355.51 161.54 338.43 156.23 338.52 156.23 329.8 156.23 325.29"/><rect class="cls-6" x="168.33" y="354.56" width="25.76" height="13.71" transform="translate(362.41 722.84) rotate(180)"/><rect class="cls-7" x="191.69" y="362.45" width="2.4" height="5.76"/><rect x="153.74" y="318.19" width="5.08" height="23.68"/><rect x="164.83" y="353.61" width="4.31" height="17.65"/><rect class="cls-7" x="187.12" y="362.52" width="2.22" height="5.76"/><polyline class="cls-2" points="155.98 318 161.25 318 161.25 308.09 164.83 308.09 164.83 300.19"/></svg>