<svg id="Layer_1" data-name="Layer 1" xmlns="http://www.w3.org/2000/svg" viewBox="0 0 500 500"><defs><style>.cls-1,.cls-3,.cls-7,.cls-9{fill:#e29ea4;}.cls-2{fill:none;}.cls-10,.cls-11,.cls-16,.cls-19,.cls-2,.cls-20,.cls-21,.cls-22,.cls-3,.cls-9{stroke:#000;}.cls-10,.cls-11,.cls-12,.cls-13,.cls-16,.cls-17,.cls-18,.cls-19,.cls-2,.cls-20,.cls-21,.cls-22,.cls-23,.cls-24,.cls-3,.cls-4,.cls-7,.cls-8,.cls-9{stroke-miterlimit:10;}.cls-2,.cls-3{stroke-width:5.2px;}.cls-25,.cls-4{fill:#d9e021;}.cls-24,.cls-4{stroke:#d9e021;}.cls-4{stroke-width:1.3px;}.cls-12,.cls-18,.cls-5{fill:#e6e6e6;}.cls-6{fill:#b3b3b3;}.cls-7{stroke:#e29ea4;stroke-width:1.5px;}.cls-19,.cls-23,.cls-24,.cls-26,.cls-8{fill:#fff;}.cls-23,.cls-8{stroke:#fff;}.cls-8{stroke-width:2.66px;}.cls-10,.cls-11,.cls-9{stroke-width:6.88px;}.cls-10{fill:#ba9b95;}.cls-11{fill:#666;}.cls-12{stroke:#e6e6e6;stroke-width:1.72px;}.cls-13,.cls-17{fill:#f2f2f2;}.cls-13{stroke:#f2f2f2;stroke-width:2.89px;}.cls-14,.cls-21{fill:#e27380;}.cls-15,.cls-16{fill:#d4465a;}.cls-16{stroke-width:5.16px;}.cls-17,.cls-18{stroke:#e27380;}.cls-17,.cls-18,.cls-19{stroke-width:5.98px;}.cls-20{stroke-width:9.95px;}.cls-21{stroke-width:3.05px;}.cls-22{stroke-width:9.47px;}.cls-23{stroke-width:2px;}.cls-24{stroke-width:3.36px;}</style></defs><title>CAT  SVG]</title><rect class="cls-1" x="127.5" y="232.83" width="106.28" height="34.69"/><polyline class="cls-2" points="173.05 320.56 179.37 320.62 179.33 325.75 186.3 325.82 186.26 330.49 231.36 330.18 258.5 330.42 258.41 325.38 268.02 325.38"/><polyline class="cls-3" points="138.14 328.05 138.14 338.6 130.56 339.02 130.56 348.22 123.52 348.22 123.52 355.81 111.06 355.99 111.06 369.89 102.39 369.89 93.19 369.89 93.19 338.17 109.44 337.93 109.44 325.31 119.73 325.31 119.79 305.6 127.31 311.39"/><rect class="cls-1" x="137.46" y="243.85" width="208.77" height="70.69"/><rect class="cls-1" x="153.26" y="302.71" width="22.24" height="22.86"/><polyline class="cls-3" points="120.05 227.19 119.69 245.06 115.28 245.06 115.22 251.06 112.18 251.17 112.18 296.4 115.25 296.42 115.2 302.76 120.76 302.96 120.77 313.94 130.8 313.94 130.78 325.4 141.46 325.44 141.21 338.53 156.69 338.42 156.77 350.53 171.48 350.53 172.19 360.4 184.39 360.4 184.14 368.91 212.7 368.91 212.41 351.99 197.46 351.98 197.46 351.98 197.46 351.98 197.19 339.73 185.36 339.73 185.11 330.64 173.61 330.7 173.65 321.06 163.23 320.93"/><polyline class="cls-3" points="291.23 246.37 280.41 246.16 280.09 240.07 261.97 240.45 261.98 232.22 133.26 231 133.26 219.5 126.59 219.5 126.59 206.57 119.1 206.57 119.1 196.21 119.1 190.53 125.95 190.4 125.91 180.52 125.93 177.81 131.78 177.68 131.69 155.35 131.69 155.35 131.69 145.12 126.07 145.05 126.07 140.44 105.6 140.44 105.6 152.77 118.34 152.77 118.51 161.66 118.52 161.67 118.48 168.61 114.88 168.6 114.92 178.4 105.6 178.4 105.6 212.25 105.6 216.28 113.81 216.57 113.68 228.04 122.57 228.15"/><rect class="cls-1" x="345.21" y="277.8" width="6.86" height="23.35"/><rect class="cls-1" x="334.93" y="265.81" width="25.93" height="16.26"/><polyline class="cls-3" points="310.74 315.49 310.25 331.6 301.04 332.12 301.04 341.32 294 341.32 294 348.9 281.54 349.08 281.54 362.98 272.87 362.98 263.66 362.98 263.66 331.27 279.91 331.03 279.91 318.41 290.2 318.41 289.94 304.49 297.79 304.49"/><polyline class="cls-3" points="362.4 265.81 362.18 288.93 350.61 289.12 350.7 299.66 344.49 299.65 344.49 311.95 333.4 312.21"/><polyline class="cls-3" points="290.64 289.01 290.64 307.24 304.76 307.24 304.73 318.69 315.42 318.73 315.17 331.82 330.65 331.72 330.73 343.82 345.44 343.82 345.47 353.7 358.35 353.7 358.1 362.21 389.81 362.38 389.72 343.95 389.72 343.95 389.72 343.95 374.68 344.15 374.47 333.02 359.91 333.02 359.7 323.99 347.45 324 347.38 311.07 333.4 311.23"/><rect class="cls-1" x="171.7" y="299.39" width="10.46" height="16.18"/><rect class="cls-1" x="267.77" y="301.14" width="20.26" height="16.89"/><rect class="cls-4" x="350.04" y="171" width="17.29" height="5.86"/><rect class="cls-5" x="95.16" y="340.64" width="13.3" height="26.7"/><rect class="cls-5" x="186.68" y="354.54" width="24.39" height="11.87"/><rect class="cls-5" x="266.23" y="333.73" width="13.14" height="27.73"/><rect class="cls-5" x="360.63" y="345.62" width="26.5" height="14.13"/><rect class="cls-5" x="95.16" y="340.37" width="17.04" height="5.53"/><rect class="cls-5" x="186.68" y="348.64" width="8.07" height="14.12"/><rect class="cls-5" x="273.5" y="333.73" width="8.83" height="5.61"/><rect class="cls-6" x="95.16" y="357.41" width="4.98" height="3.07"/><rect class="cls-6" x="95.16" y="364.04" width="4.98" height="3.3"/><rect class="cls-6" x="203.17" y="361.42" width="2.3" height="5"/><rect class="cls-6" x="208.59" y="361.42" width="2.48" height="5"/><rect class="cls-6" x="266.23" y="351.92" width="8.18" height="2.7"/><rect class="cls-6" x="266.23" y="358.31" width="8.18" height="3.15"/><rect class="cls-6" x="384.6" y="354" width="2.53" height="5.76"/><rect class="cls-6" x="379.73" y="354" width="2.22" height="5.76"/><rect class="cls-7" x="344.56" y="172.05" width="41.4" height="5.59"/><rect class="cls-1" x="351.25" y="154.34" width="8.16" height="10.57"/><rect class="cls-1" x="280.41" y="286.73" width="6.79" height="13.02"/><rect class="cls-1" x="292.64" y="309.59" width="9.7" height="15.42"/><rect class="cls-1" x="163.23" y="333.37" width="13.71" height="9.27"/><rect class="cls-1" x="131.01" y="295.03" width="5.83" height="7.68"/><rect class="cls-5" x="182.16" y="307.75" width="81.5" height="11.58"/><rect class="cls-5" x="175.5" y="315.57" width="81.6" height="12.35"/><rect class="cls-5" x="262.63" y="307.48" width="5.14" height="18.72"/><rect class="cls-5" x="175.5" y="318.03" width="102.36" height="9.4"/><rect class="cls-8" x="375.44" y="215.62" width="4.55" height="4.55"/><polygon class="cls-9" points="231.14 176.11 231.14 138.88 241.09 138.88 241.09 124.78 250.21 124.78 250.21 116.49 262.64 116.49 262.64 124.78 274.25 124.78 274.25 139.7 283.37 139.7 283.37 149.65 334.77 150.48 334.77 138.05 345.54 138.05 345.54 121.47 354.71 121.36 354.71 113.03 367.79 113.03 367.79 120.17 379.67 120.17 379.67 133.24 389.73 133.24 389.53 178.01 397.62 178.04 397.62 188.75 397.62 237.93 390.95 237.93 391.23 246.74 383.77 246.74 384 253.27 377.47 253.27 377.7 261.67 369.31 261.67 369.31 270.76 361.84 270.76 356.99 270.76 356.99 275.84 281.65 276.5 281.34 269.15 266.73 268.94 266.76 259.93 255.87 259.93 255.84 252.55 245.85 252.55 245.86 243.94 235.88 243.85 235.54 234.46 224.56 234.17 224.78 176.38 231.14 176.11"/><polygon class="cls-10" points="307.07 216.37 329.08 216.37 329.08 223.1 326.17 223.1 326.17 226.55 321.98 226.55 321.98 230.37 317.07 230.37 316.71 226.92 312.16 226.92 311.98 223.37 307.07 223.37 307.07 216.37"/><polyline class="cls-9" points="290.56 239.84 290.56 250.22 294.71 250.22 294.71 254.12 315.47 254.12 315.47 249.19 320.14 249.44 320.14 232.84"/><polyline class="cls-11" points="320.14 249.32 325.1 248.7 325.1 253.9 344.32 253.9 344.32 248.7 348.04 248.7 348.04 240.8"/><rect class="cls-12" x="245.85" y="147.86" width="22.86" height="7.75"/><rect class="cls-12" x="252.46" y="136.52" width="9.83" height="16.25"/><rect class="cls-13" x="352.44" y="133.44" width="18.08" height="25.01" transform="translate(215.54 507.42) rotate(-90)"/><rect class="cls-5" x="328.56" y="244" width="13.11" height="6.7"/><rect class="cls-5" x="298.23" y="246.65" width="13.47" height="4.06"/><rect class="cls-12" x="324.52" y="243.48" width="19.35" height="4.12"/><rect class="cls-5" x="294.1" y="243.33" width="22.85" height="4.61"/><rect class="cls-14" x="227.22" y="179.7" width="6.56" height="51.3"/><rect class="cls-15" x="238.81" y="231" width="10.19" height="9.57"/><rect class="cls-14" x="249" y="240.31" width="10.95" height="9.09"/><rect class="cls-14" x="270.17" y="256.63" width="11.02" height="9.27"/><rect class="cls-15" x="258.46" y="248.68" width="11.71" height="7.95"/><rect class="cls-15" x="380.8" y="234.54" width="6.86" height="8.79"/><rect class="cls-14" x="375.28" y="243.33" width="5.51" height="8.21"/><rect class="cls-15" x="365.89" y="249.65" width="9.39" height="8.57"/><rect class="cls-14" x="353.56" y="262.22" width="12.45" height="5.31"/><rect class="cls-14" x="390.16" y="181.27" width="4.51" height="53.27"/><rect class="cls-14" x="310.83" y="219.5" width="14.36" height="5.67"/><rect class="cls-15" x="338.19" y="141.55" width="11.4" height="14.97"/><rect class="cls-15" x="358.15" y="116.47" width="6.47" height="20.41"/><rect class="cls-15" x="349.6" y="123.48" width="27.13" height="13.4"/><rect class="cls-15" x="368.78" y="136.29" width="17.64" height="10.86"/><rect class="cls-15" x="375.21" y="145.83" width="11.21" height="10.68"/><rect class="cls-16" x="313.66" y="254.12" width="12.56" height="10.08"/><rect class="cls-17" x="258.46" y="216.37" width="22.73" height="14"/><rect class="cls-18" x="353.56" y="216.37" width="24.1" height="14.63"/><rect class="cls-19" x="252.46" y="170.08" width="45.77" height="42.7"/><rect class="cls-20" x="267.86" y="178.66" width="27.71" height="23.27"/><rect class="cls-19" x="338.39" y="172.2" width="45.77" height="42.7"/><rect class="cls-21" x="252.46" y="168.7" width="45.77" height="7.71"/><rect class="cls-21" x="338.58" y="170.94" width="45.77" height="7.71"/><rect class="cls-22" x="353.32" y="182.81" width="27.41" height="21.28"/><rect class="cls-23" x="369.52" y="192.09" width="2.72" height="2.72"/><rect class="cls-24" x="373.68" y="185.35" width="5.76" height="5.76"/><rect class="cls-23" x="284.1" y="189.89" width="2.72" height="2.72"/><rect class="cls-24" x="288.26" y="183.15" width="5.76" height="5.76"/><rect class="cls-15" x="347.44" y="123.48" width="9.08" height="23.67"/><rect x="173.65" y="327.43" width="104.21" height="4.81"/><rect class="cls-15" x="253.59" y="119.95" width="5.72" height="14.13"/><rect class="cls-15" x="244.51" y="128.2" width="26.29" height="7.55"/><rect class="cls-15" x="234.58" y="142.26" width="10.34" height="14.26"/><rect class="cls-15" x="244.58" y="134.88" width="7.06" height="12.05"/><rect class="cls-15" x="263.26" y="135.26" width="7.49" height="11.73"/><rect class="cls-15" x="269.65" y="142.94" width="10.39" height="13.57"/><rect class="cls-1" x="121.95" y="225.16" width="9.06" height="29.63"/><rect class="cls-25" x="111.83" y="143.04" width="11.6" height="7.15"/><rect class="cls-26" x="108.23" y="143.04" width="5.29" height="7.15"/><rect class="cls-15" x="121.03" y="156.5" width="8.09" height="10.65"/><rect class="cls-15" x="108.22" y="180.93" width="15.2" height="7.13"/></svg>