<svg id="Layer_1" data-name="Layer 1" xmlns="http://www.w3.org/2000/svg" viewBox="0 0 500 500"><defs><style>.cls-1,.cls-10,.cls-2,.cls-4,.cls-8{fill:#e29ea4;}.cls-10,.cls-11,.cls-12,.cls-19,.cls-2,.cls-20,.cls-21,.cls-22,.cls-25,.cls-26,.cls-3,.cls-4{stroke:#000;}.cls-10,.cls-11,.cls-12,.cls-13,.cls-14,.cls-17,.cls-18,.cls-19,.cls-2,.cls-20,.cls-21,.cls-22,.cls-23,.cls-24,.cls-25,.cls-26,.cls-3,.cls-4,.cls-5,.cls-8,.cls-9{stroke-miterlimit:10;}.cls-2{stroke-width:5px;}.cls-25,.cls-3{fill:none;}.cls-3,.cls-4{stroke-width:5.2px;}.cls-27,.cls-5{fill:#d9e021;}.cls-24,.cls-5{stroke:#d9e021;}.cls-5{stroke-width:1.3px;}.cls-13,.cls-18,.cls-6{fill:#e6e6e6;}.cls-7{fill:#b3b3b3;}.cls-8{stroke:#e29ea4;stroke-width:1.5px;}.cls-19,.cls-23,.cls-24,.cls-28,.cls-9{fill:#fff;}.cls-23,.cls-9{stroke:#fff;}.cls-9{stroke-width:2.66px;}.cls-10,.cls-11,.cls-12{stroke-width:6.88px;}.cls-11{fill:#ba9b95;}.cls-12{fill:#666;}.cls-13{stroke:#e6e6e6;stroke-width:1.72px;}.cls-14,.cls-17{fill:#f2f2f2;}.cls-14{stroke:#f2f2f2;stroke-width:2.89px;}.cls-15,.cls-21{fill:#e27380;}.cls-16{fill:#d4465a;}.cls-17,.cls-18{stroke:#e27380;}.cls-17,.cls-18,.cls-19{stroke-width:5.98px;}.cls-20{stroke-width:9.95px;}.cls-21{stroke-width:3.05px;}.cls-22{stroke-width:9.47px;}.cls-23{stroke-width:2px;}.cls-24{stroke-width:3.36px;}.cls-25,.cls-26{stroke-width:4px;}</style></defs><title>CAT  SVG]</title><rect class="cls-1" x="361.16" y="271.6" width="14.93" height="32.77"/><rect class="cls-1" x="336.61" y="296.18" width="23.3" height="23.46"/><rect class="cls-1" x="129.33" y="251.58" width="24.4" height="67.19"/><rect class="cls-1" x="351.76" y="297.87" width="6.23" height="6.23"/><path class="cls-2" d="M377.45,271.6l-.53,35.56h-3l-.14,5.22v6.92l4.49.34.09,12.74h4.93l-.08,11.17,5.18,0-.24,11,16.64.18-.25,17.36H369v-7.68l.19-6.76-5.78-.08-.07-17.09-6.33.09V327.36h-6.88l0-7.27"/><rect class="cls-1" x="230.63" y="243.31" width="38.77" height="14.48"/><polyline class="cls-1" points="131.66 259.11 131.66 226.25 143.42 226.25 143.42 259.11"/><rect class="cls-1" x="318.65" y="270.44" width="35.92" height="45.29"/><rect class="cls-1" x="137.58" y="237.47" width="106.28" height="34.69"/><polyline class="cls-3" points="183.14 325.19 189.46 325.25 189.42 330.38 196.39 330.45 196.35 335.12 241.45 334.81 268.59 335.06 268.5 330.01 278.11 330.01"/><rect class="cls-1" x="150.47" y="248.49" width="175.17" height="84.52"/><rect class="cls-1" x="163.35" y="307.34" width="22.24" height="22.86"/><polyline class="cls-4" points="301.32 251 290.5 250.79 290.18 244.7 272.06 245.08 272.07 236.85 145.53 235.65"/><rect class="cls-1" x="345.02" y="270.44" width="25.93" height="16.26"/><rect class="cls-1" x="354.3" y="282.43" width="6.86" height="23.35"/><rect class="cls-1" x="181.79" y="304.02" width="10.46" height="16.18"/><rect class="cls-1" x="277.86" y="305.77" width="20.26" height="16.89"/><rect class="cls-5" x="360.13" y="175.63" width="17.29" height="5.86"/><rect class="cls-6" x="372.11" y="356.63" width="30.73" height="13.71" transform="translate(774.95 726.98) rotate(180)"/><rect class="cls-7" x="399.67" y="364.52" width="3.17" height="5.76" transform="translate(802.51 734.79) rotate(180)"/><rect class="cls-7" x="392.67" y="364.53" width="2.95" height="5.76"/><rect class="cls-8" x="354.65" y="176.68" width="41.4" height="5.59"/><rect class="cls-1" x="361.34" y="158.98" width="8.16" height="10.57"/><rect class="cls-1" x="290.5" y="291.36" width="6.79" height="13.02"/><rect class="cls-1" x="141.1" y="299.67" width="5.83" height="7.68"/><rect class="cls-6" x="195.25" y="312.38" width="86.61" height="11.58"/><rect class="cls-6" x="185.59" y="320.2" width="81.6" height="12.35"/><rect class="cls-6" x="177.18" y="322.66" width="120.94" height="9.4"/><rect class="cls-9" x="385.53" y="220.25" width="4.55" height="4.55"/><polygon class="cls-10" points="241.23 173.74 241.23 136.51 251.18 136.51 251.18 122.41 260.3 122.41 260.3 114.12 272.73 114.12 272.73 122.41 284.34 122.41 284.34 137.34 293.46 137.34 293.46 147.28 344.86 148.11 344.86 135.68 355.63 135.68 355.63 119.1 364.8 118.99 364.8 110.67 377.88 110.67 377.88 117.8 389.76 117.8 389.76 130.88 399.81 130.88 399.62 175.65 407.71 175.67 407.71 186.38 407.71 235.56 401.05 235.56 401.32 244.37 393.86 244.37 394.09 250.9 387.56 250.9 387.79 259.3 379.39 259.3 379.39 268.39 371.93 268.39 367.08 268.39 367.08 273.48 291.74 274.13 291.43 266.78 276.82 266.57 276.85 257.56 265.96 257.56 265.93 250.19 255.94 250.19 255.95 241.57 245.97 241.49 245.63 232.09 234.66 231.8 234.87 174.02 241.23 173.74"/><polygon class="cls-11" points="317.16 214 339.17 214 339.17 220.73 336.26 220.73 336.26 224.19 332.07 224.19 332.07 228 327.16 228 326.8 224.55 322.25 224.55 322.07 221 317.16 221 317.16 214"/><polyline class="cls-10" points="300.65 237.47 300.65 247.85 304.8 247.85 304.8 251.75 325.56 251.75 325.56 246.82 330.23 247.08 330.23 230.47"/><polyline class="cls-12" points="330.23 246.95 335.19 246.33 335.19 251.53 354.41 251.53 354.41 246.33 358.13 246.33 358.13 238.43"/><rect class="cls-13" x="255.94" y="145.49" width="22.86" height="7.75"/><rect class="cls-13" x="262.55" y="134.15" width="9.83" height="16.25"/><rect class="cls-14" x="362.53" y="131.07" width="18.08" height="25.01" transform="translate(227.99 515.14) rotate(-90)"/><rect class="cls-6" x="338.65" y="241.63" width="13.11" height="6.7"/><rect class="cls-6" x="308.32" y="244.28" width="13.47" height="4.06"/><rect class="cls-13" x="334.61" y="241.11" width="19.35" height="4.12"/><rect class="cls-6" x="304.19" y="240.96" width="22.85" height="4.61"/><rect class="cls-15" x="237.31" y="177.33" width="6.56" height="51.3"/><rect class="cls-16" x="248.9" y="228.63" width="10.19" height="9.57"/><rect class="cls-15" x="259.09" y="237.94" width="10.95" height="9.09"/><rect class="cls-15" x="280.26" y="254.26" width="11.02" height="9.27"/><rect class="cls-16" x="268.55" y="246.31" width="11.71" height="7.95"/><rect class="cls-16" x="390.89" y="232.17" width="6.86" height="8.79"/><rect class="cls-15" x="385.37" y="240.96" width="5.51" height="8.21"/><rect class="cls-16" x="375.98" y="247.29" width="9.39" height="8.57"/><rect class="cls-15" x="363.65" y="259.85" width="12.45" height="5.31"/><rect class="cls-15" x="400.25" y="178.9" width="4.51" height="53.27"/><rect class="cls-15" x="320.92" y="217.13" width="14.36" height="5.67"/><rect class="cls-16" x="348.28" y="139.18" width="11.4" height="14.97"/><rect class="cls-16" x="368.24" y="114.1" width="6.47" height="20.41"/><rect class="cls-16" x="359.69" y="121.11" width="27.13" height="13.4"/><rect class="cls-16" x="378.87" y="133.92" width="17.64" height="10.86"/><rect class="cls-16" x="385.3" y="143.47" width="11.21" height="10.68"/><rect class="cls-17" x="268.55" y="214" width="22.73" height="14"/><rect class="cls-18" x="363.65" y="214" width="24.1" height="14.63"/><rect class="cls-19" x="262.55" y="167.71" width="45.77" height="42.7"/><rect class="cls-20" x="277.95" y="176.29" width="27.71" height="23.27"/><rect class="cls-19" x="348.48" y="169.83" width="45.77" height="42.7"/><rect class="cls-21" x="262.55" y="166.33" width="45.77" height="7.71"/><rect class="cls-21" x="348.67" y="168.57" width="45.77" height="7.71"/><rect class="cls-22" x="363.41" y="180.44" width="27.41" height="21.28"/><rect class="cls-23" x="379.61" y="189.72" width="2.72" height="2.72"/><rect class="cls-24" x="383.77" y="182.98" width="5.76" height="5.76"/><rect class="cls-23" x="294.19" y="187.52" width="2.72" height="2.72"/><rect class="cls-24" x="298.35" y="180.78" width="5.76" height="5.76"/><rect class="cls-16" x="357.53" y="121.11" width="9.08" height="23.67"/><rect x="186.74" y="332.06" width="116.5" height="4.81"/><rect class="cls-16" x="263.68" y="117.58" width="5.72" height="14.13"/><rect class="cls-16" x="254.6" y="125.83" width="26.29" height="7.55"/><rect class="cls-16" x="244.67" y="139.89" width="10.34" height="14.26"/><rect class="cls-16" x="254.67" y="132.51" width="7.06" height="12.05"/><rect class="cls-16" x="273.35" y="132.89" width="7.49" height="11.73"/><rect class="cls-16" x="279.73" y="140.57" width="10.39" height="13.57"/><rect class="cls-1" x="132.04" y="229.79" width="9.06" height="29.63"/><polyline class="cls-4" points="130.13 231.82 129.78 249.69 125.37 249.69 125.31 255.69 122.27 255.8 122.27 301.04 125.34 301.05 125.29 307.4 130.85 307.59 130.85 316.05"/><rect class="cls-1" x="351.76" y="283.87" width="3.54" height="15.8"/><polyline class="cls-25" points="300.68 334.47 300.68 332.06 308.09 332.06"/><rect class="cls-1" x="135.33" y="264.53" width="23.96" height="30.78"/><line class="cls-26" x1="168.87" y1="332.06" x2="186.74" y2="332.06"/><polyline class="cls-2" points="362.07 302.32 362.07 311.47 354.81 311.43 354.81 319.56 345.25 319.65 345.59 331.87 332.17 332.14 332.56 345.8 319.24 345.55 319.5 354.04 306.08 353.99 306.62 372.21 285.8 372.26 285.66 345.68 298.71 345.74 298.71 332.06 311.73 332.27 311.73 319.69 321.36 319.7 321.14 308.86 329.65 308.86 329.3 299.67"/><rect class="cls-6" x="284.82" y="350.32" width="22.07" height="17.07" transform="translate(-63 654.7) rotate(-90)"/><polyline class="cls-1" points="368.19 288.14 368.19 279.87 359.91 279.87 359.91 288.14"/><polyline class="cls-2" points="181.19 319.67 181.32 331.79 189.32 332.06 189.32 342.53 197.57 342.68 197.53 353.98 213.84 354.1 213.84 371.51 183.03 371.29 182.97 363.92 182.97 356.38 170.09 356.03 170.35 339.82 153.73 339.99 153.73 331.27 153.73 326.76"/><rect class="cls-6" x="185.59" y="356.03" width="25.76" height="13.71" transform="translate(396.95 725.78) rotate(180)"/><rect class="cls-7" x="208.95" y="363.99" width="2.4" height="5.76"/><rect class="cls-7" x="203.79" y="363.99" width="2.22" height="5.76"/><rect class="cls-1" x="127.97" y="300.98" width="7.36" height="15.68"/><polyline class="cls-2" points="130.25 311.85 130.33 319.33 118.44 319.51 118.44 330.1 109.12 330.34 109.44 342.91 90.43 343.26 90.42 370.03 114.18 370.03 114.07 355.1 130.85 354.86 130.85 342.31 145 342.18 144.87 331.96 157.48 331.76 157.08 319.67 156.82 316.05 170.56 315.11 170 305.32 177.18 305.32 177.18 299.9"/><rect class="cls-6" x="91.67" y="346.87" width="22.79" height="18.82" transform="translate(-253.21 459.35) rotate(-90)"/><polyline class="cls-4" points="130.03 238.2 130.12 226.71 136.09 226.71 136.04 213.78 139.93 213.78 139.97 203.7 139.98 197.69 135.97 197.61 136.02 187.73 135.99 185.03 131.89 185.05 132.13 162.56 132.13 162.56 132.26 152.31 135.86 152.26 135.86 144.99 154.73 145.02 154.73 159.23 144.46 159.31 144.3 168.75 144.3 168.75 144.23 175.82 149.19 175.8 149.27 185.61 153.38 185.61 153.38 219.54 153.4 223.75 147.94 223.78 148.07 235.25"/><rect class="cls-27" x="137.66" y="147.65" width="11.95" height="9.75" transform="translate(287.26 305.04) rotate(-180)"/><rect class="cls-28" x="146.78" y="147.65" width="5.29" height="9.75" transform="translate(298.86 305.04) rotate(-180)"/><rect class="cls-16" x="133.97" y="163.71" width="8.09" height="10.65" transform="translate(276.02 338.07) rotate(-180)"/><rect class="cls-16" x="138.65" y="188.14" width="12.21" height="7.13" transform="translate(289.51 383.41) rotate(-180)"/><rect x="145.53" y="232.78" width="3.14" height="4.69"/><rect class="cls-1" x="142.01" y="232.78" width="3.51" height="7.57"/></svg>