<svg id="Layer_1" data-name="Layer 1" xmlns="http://www.w3.org/2000/svg" viewBox="0 0 500 500"><defs><style>.cls-1,.cls-10,.cls-12,.cls-2{fill:#e29ea4;}.cls-12,.cls-13,.cls-14,.cls-18,.cls-2,.cls-21,.cls-22,.cls-23,.cls-24,.cls-6{stroke:#000;}.cls-10,.cls-11,.cls-12,.cls-13,.cls-14,.cls-15,.cls-16,.cls-18,.cls-19,.cls-2,.cls-20,.cls-21,.cls-22,.cls-23,.cls-24,.cls-25,.cls-26,.cls-6,.cls-7{stroke-miterlimit:10;}.cls-2,.cls-6{stroke-width:5.2px;}.cls-3,.cls-7{fill:#d9e021;}.cls-11,.cls-21,.cls-25,.cls-26,.cls-4{fill:#fff;}.cls-18,.cls-5{fill:#d4465a;}.cls-6{fill:none;}.cls-26,.cls-7{stroke:#d9e021;}.cls-7{stroke-width:1.3px;}.cls-15,.cls-20,.cls-8{fill:#e6e6e6;}.cls-9{fill:#b3b3b3;}.cls-10{stroke:#e29ea4;stroke-width:1.5px;}.cls-11,.cls-25{stroke:#fff;}.cls-11{stroke-width:2.66px;}.cls-12,.cls-13,.cls-14{stroke-width:6.88px;}.cls-13{fill:#ba9b95;}.cls-14{fill:#666;}.cls-15{stroke:#e6e6e6;stroke-width:1.72px;}.cls-16,.cls-19{fill:#f2f2f2;}.cls-16{stroke:#f2f2f2;stroke-width:2.89px;}.cls-17,.cls-23{fill:#e27380;}.cls-18{stroke-width:5.16px;}.cls-19,.cls-20{stroke:#e27380;}.cls-19,.cls-20,.cls-21{stroke-width:5.98px;}.cls-22{stroke-width:9.95px;}.cls-23{stroke-width:3.05px;}.cls-24{stroke-width:9.47px;}.cls-25{stroke-width:2px;}.cls-26{stroke-width:3.36px;}</style></defs><title>CAT  SVG]</title><rect class="cls-1" x="126.41" y="316.47" width="17.09" height="24.08"/><polyline class="cls-2" points="140.34 231.57 140.25 220.08 134.29 220.08 134.33 207.16 130.45 207.16 130.4 197.07 130.39 191.06 134.4 190.99 134.35 181.1 134.38 178.4 138.48 178.42 138.24 155.94 138.24 155.94 138.12 145.68 134.51 145.63 134.51 138.36 115.65 138.39 115.65 152.6 125.91 152.68 126.07 162.13 126.07 162.13 126.14 169.19 121.19 169.18 121.1 178.98 116.99 178.98 116.99 212.91 116.97 217.12 122.43 217.15 122.3 228.62"/><polyline class="cls-1" points="127.6 255.37 127.6 222.51 139.37 222.51 139.37 255.37"/><rect class="cls-3" x="120.77" y="141.02" width="11.95" height="9.75"/><rect class="cls-4" x="118.29" y="141.02" width="5.29" height="9.75"/><rect class="cls-5" x="128.32" y="157.08" width="8.09" height="10.65"/><rect class="cls-5" x="119.51" y="181.52" width="12.21" height="7.13"/><rect class="cls-1" x="298.25" y="334.45" width="12.8" height="14.8"/><rect class="cls-1" x="322.99" y="274.09" width="30.45" height="40.35"/><rect class="cls-1" x="133.53" y="233.73" width="106.28" height="34.69"/><polyline class="cls-6" points="179.09 321.46 185.41 321.51 185.37 326.65 192.34 326.71 192.3 331.38 237.4 331.08 264.54 331.32 264.44 326.28 274.06 326.28"/><rect class="cls-1" x="143.5" y="244.75" width="182.23" height="84.52"/><rect class="cls-1" x="159.3" y="303.61" width="22.24" height="22.86"/><polyline class="cls-2" points="126.08 228.09 125.73 245.96 121.31 245.96 121.26 251.96 118.22 252.07 118.22 297.3 121.28 297.32 121.23 303.66 126.79 303.85 126.8 314.84 136.84 314.84 136.81 326.3 147.5 326.34 147.25 339.43 156.47 339.36 156.47 351.43 165.78 351.43 165.78 361.3 177.74 361.3 177.74 370.36 209.71 369.93 209.64 352.89 191.78 352.88 191.78 352.88 191.78 352.88 191.6 343.54 182.36 343.54 182.69 331.58 173.95 331.63 173.89 321.91 164.06 321.9"/><line class="cls-2" x1="119.72" y1="228.94" x2="128.61" y2="229.04"/><polyline class="cls-2" points="297.27 247.26 286.45 247.06 286.12 240.97 268.01 241.35 268.02 233.11 139.3 231.9"/><rect class="cls-1" x="351.25" y="278.69" width="6.86" height="23.35"/><rect class="cls-1" x="340.97" y="266.71" width="25.93" height="16.26"/><polyline class="cls-2" points="295.57 352.46 295.84 332.09 302.15 332.07 302.12 319.39 307.24 319.31 307.43 308.93"/><polyline class="cls-2" points="324.19 318.93 324.08 329.95 320.32 330.19 320.24 341.14 316.15 341.14 316.01 346.83 325.53 346.98 325.73 363.23 295.51 363.55 295.57 352.46"/><polyline class="cls-2" points="368.44 266.71 368.22 289.83 356.65 290.02 356.74 300.56 350.52 300.55 350.52 312.85 339.44 313.11"/><polyline class="cls-2" points="313.83 295.31 313.69 308.14 322.77 308.14 322.43 319.43 331.64 319.29 331.41 332.48 338.91 332.47 338.65 344.72 349.25 344.72 349.25 354.89 356.48 354.75 356.63 363.07 385.77 363.23 386 344.7 386 344.7 386 344.7 370.07 344.57 370.34 333.88 363.87 333.8 364.01 324.89 353.49 324.89 353.42 311.97 344.57 312.07"/><rect class="cls-1" x="177.74" y="300.29" width="10.46" height="16.18"/><rect class="cls-1" x="273.81" y="302.04" width="20.26" height="16.89"/><rect class="cls-7" x="356.08" y="171.9" width="17.29" height="5.86"/><rect class="cls-8" x="180.38" y="355.44" width="26.77" height="12.06"/><rect class="cls-8" x="359.27" y="346.52" width="25.14" height="14.13"/><rect class="cls-8" x="296.63" y="343.71" width="8.83" height="5.61" transform="translate(-45.47 647.56) rotate(-90)"/><rect class="cls-9" x="198.47" y="362.42" width="2.52" height="5.08"/><rect class="cls-9" x="204.42" y="362.42" width="2.73" height="5.08"/><rect class="cls-9" x="310.51" y="355.66" width="8.18" height="2.7" transform="translate(671.61 42.41) rotate(90)"/><rect class="cls-9" x="382" y="354.89" width="2.4" height="5.76"/><rect class="cls-9" x="376.4" y="354.89" width="2.22" height="5.76"/><rect class="cls-10" x="350.6" y="172.95" width="41.4" height="5.59"/><rect class="cls-1" x="357.28" y="155.24" width="8.16" height="10.57"/><rect class="cls-1" x="286.44" y="287.63" width="6.79" height="13.02"/><rect class="cls-1" x="165.78" y="334.27" width="13.71" height="9.27"/><rect class="cls-1" x="137.05" y="295.93" width="5.83" height="7.68"/><rect class="cls-8" x="191.2" y="308.65" width="86.61" height="11.58"/><rect class="cls-8" x="181.54" y="316.47" width="81.6" height="12.35"/><rect class="cls-8" x="181.54" y="318.93" width="110.29" height="9.4"/><rect class="cls-11" x="381.47" y="216.52" width="4.55" height="4.55"/><polygon class="cls-12" points="237.18 174 237.18 136.77 247.13 136.77 247.13 122.68 256.25 122.68 256.25 114.39 268.68 114.39 268.68 122.68 280.29 122.68 280.29 137.6 289.4 137.6 289.4 147.55 340.8 148.38 340.8 135.94 351.58 135.94 351.58 119.36 360.75 119.25 360.75 110.93 373.82 110.93 373.82 118.07 385.71 118.07 385.71 131.14 395.76 131.14 395.57 175.91 403.65 175.94 403.65 186.65 403.65 235.83 396.99 235.83 397.27 244.64 389.81 244.64 390.04 251.17 383.51 251.17 383.74 259.56 375.34 259.56 375.34 268.66 367.88 268.66 363.03 268.66 363.03 273.74 287.69 274.4 287.37 267.04 272.77 266.84 272.8 257.83 261.9 257.83 261.88 250.45 251.89 250.45 251.9 241.84 241.91 241.75 241.58 232.35 230.6 232.07 230.81 174.28 237.18 174"/><polygon class="cls-13" points="313.11 214.27 335.12 214.27 335.12 221 332.2 221 332.2 224.45 328.02 224.45 328.02 228.27 323.11 228.27 322.75 224.81 318.2 224.81 318.02 221.27 313.11 221.27 313.11 214.27"/><polyline class="cls-12" points="296.6 237.74 296.6 248.12 300.75 248.12 300.75 252.01 321.51 252.01 321.51 247.08 326.18 247.34 326.18 230.73"/><polyline class="cls-14" points="326.18 247.22 331.14 246.6 331.14 251.79 350.36 251.79 350.36 246.6 354.08 246.6 354.08 238.69"/><rect class="cls-15" x="251.89" y="145.76" width="22.86" height="7.75"/><rect class="cls-15" x="258.5" y="134.42" width="9.83" height="16.25"/><rect class="cls-16" x="358.47" y="131.33" width="18.08" height="25.01" transform="translate(223.67 511.36) rotate(-90)"/><rect class="cls-8" x="334.6" y="241.9" width="13.11" height="6.7"/><rect class="cls-8" x="304.27" y="244.55" width="13.47" height="4.06"/><rect class="cls-15" x="330.56" y="241.37" width="19.35" height="4.12"/><rect class="cls-8" x="300.13" y="241.23" width="22.85" height="4.61"/><rect class="cls-17" x="233.26" y="177.59" width="6.56" height="51.3"/><rect class="cls-5" x="244.85" y="228.9" width="10.19" height="9.57"/><rect class="cls-17" x="255.03" y="238.21" width="10.95" height="9.09"/><rect class="cls-17" x="276.21" y="254.53" width="11.02" height="9.27"/><rect class="cls-5" x="264.5" y="246.58" width="11.71" height="7.95"/><rect class="cls-5" x="386.83" y="232.44" width="6.86" height="8.79"/><rect class="cls-17" x="381.32" y="241.22" width="5.51" height="8.21"/><rect class="cls-5" x="371.93" y="247.55" width="9.39" height="8.57"/><rect class="cls-17" x="359.59" y="260.11" width="12.45" height="5.31"/><rect class="cls-17" x="396.2" y="179.17" width="4.51" height="53.27"/><rect class="cls-17" x="316.87" y="217.39" width="14.36" height="5.67"/><rect class="cls-5" x="344.23" y="139.44" width="11.4" height="14.97"/><rect class="cls-5" x="364.18" y="114.36" width="6.47" height="20.41"/><rect class="cls-5" x="355.63" y="121.38" width="27.13" height="13.4"/><rect class="cls-5" x="374.82" y="134.19" width="17.64" height="10.86"/><rect class="cls-5" x="381.25" y="143.73" width="11.21" height="10.68"/><rect class="cls-18" x="319.7" y="252.02" width="12.56" height="10.08"/><rect class="cls-19" x="264.5" y="214.27" width="22.73" height="14"/><rect class="cls-20" x="359.59" y="214.27" width="24.1" height="14.63"/><rect class="cls-21" x="258.5" y="167.97" width="45.77" height="42.7"/><rect class="cls-22" x="273.9" y="176.55" width="27.71" height="23.27"/><rect class="cls-21" x="344.43" y="170.09" width="45.77" height="42.7"/><rect class="cls-23" x="258.5" y="166.6" width="45.77" height="7.71"/><rect class="cls-23" x="344.62" y="168.84" width="45.77" height="7.71"/><rect class="cls-24" x="359.36" y="180.71" width="27.41" height="21.28"/><rect class="cls-25" x="375.56" y="189.99" width="2.72" height="2.72"/><rect class="cls-26" x="379.72" y="183.25" width="5.76" height="5.76"/><rect class="cls-25" x="290.14" y="187.79" width="2.72" height="2.72"/><rect class="cls-26" x="294.3" y="181.04" width="5.76" height="5.76"/><rect class="cls-5" x="353.48" y="121.38" width="9.08" height="23.67"/><rect x="182.69" y="328.33" width="116.5" height="4.81"/><rect class="cls-5" x="259.63" y="117.85" width="5.72" height="14.13"/><rect class="cls-8" x="304.65" y="342.5" width="11.86" height="25.35" transform="translate(665.75 44.6) rotate(90)"/><rect class="cls-5" x="250.54" y="126.1" width="26.29" height="7.55"/><rect class="cls-5" x="240.62" y="140.16" width="10.34" height="14.26"/><rect class="cls-5" x="250.62" y="132.77" width="7.06" height="12.05"/><rect class="cls-5" x="269.3" y="133.15" width="7.49" height="11.73"/><rect class="cls-5" x="275.68" y="140.84" width="10.39" height="13.57"/><rect class="cls-1" x="127.99" y="226.06" width="9.06" height="29.63"/><rect class="cls-9" x="318.8" y="356.65" width="5.76" height="3.15" transform="translate(679.9 36.55) rotate(90)"/><rect class="cls-9" x="314.35" y="355.35" width="2.22" height="5.76"/><rect class="cls-8" x="297.07" y="341.54" width="8.85" height="14.12"/><polyline class="cls-2" points="117.25 358.33 117.52 337.96 123.84 337.93 123.81 325.25 128.93 325.17 129.12 314.79"/><polyline class="cls-2" points="145.88 324.8 145.77 335.82 142.01 336.06 141.93 347.01 137.84 347.01 137.7 352.7 147.22 352.85 147.42 369.09 117.2 369.41 117.25 358.33"/><rect class="cls-8" x="126.34" y="348.36" width="11.86" height="25.35" transform="translate(493.3 228.77) rotate(90)"/><rect class="cls-9" x="140.49" y="362.51" width="5.76" height="3.15" transform="translate(507.45 220.73) rotate(90)"/><rect class="cls-9" x="136.04" y="361.21" width="2.22" height="5.76"/><rect class="cls-8" x="119.59" y="347.4" width="8.85" height="14.12"/><rect class="cls-1" x="347.71" y="280.13" width="3.54" height="15.8"/><rect class="cls-1" x="339.44" y="306.13" width="5.13" height="12.8"/><rect x="294.22" y="341.54" width="4.02" height="20.58"/><rect class="cls-1" x="304.64" y="321.75" width="10.82" height="14.97"/><rect class="cls-1" x="120.3" y="340.55" width="14.71" height="6.86"/><rect x="114.55" y="335.39" width="5.75" height="36.6"/><rect x="136.04" y="324.79" width="9.8" height="4.03"/></svg>